# xmcd CD database file
#
# Track frame offsets:
#	150
#	21509
#	41413
#	63504
#	84951
#	114695
#	132072
#	154515
#	176809
#	192522
#	214830
#	229582
#	250941
#	270129
#	286439
#	307067
#	329134
#
# Disc length: 4737 seconds
#
# Revision: 0
# Processed by: cddbd v1.5.1PL0 Copyright (c) Steve Scherf et al.
# Submitted via: CDex 1.51
#
DISCID=f6127f11
DTITLE=Various Artist - QUAKE TRANCE BEST.9 DISC02
DYEAR=2005
DGENRE=Trance
TTITLE0=INSANE (STEVE MURANO RMX) - DARK MONKS
TTITLE1=TAKE ME BABY (REELOOP REMIX) - DJ TOM
TTITLE2=PONY-PAK - JULIUS GELUK
TTITLE3=MAGELLAN (CLUB TECH MIX) - U.S. TEST
TTITLE4=VENGEANCE - MARK SHERRY PRESENTS OUTBURST
TTITLE5=25-SIX - MARZZ VS. DJ DANO
TTITLE6=LIVE AND LEARN - MARK SHERRY PRESENTS OUTBURST
TTITLE7=KEEP IT HARD (ROB MAYTH REMIX) - LE BRISC
TTITLE8=WHAT YOU'RE LOOKING? (STEVE THOMAS RMX) - THE CROW
TTITLE9=ALIVE and KICKIN' - RIOT 303 VS. OBSERVER
TTITLE10=SWALLOW YOUR SOUL (VAN BORGHA REMIX) - PAINMAKER
TTITLE11=I SEE YOU IN MY DREAMS (ALEX KIDD VS. DARK BY DESIGN MIX) - THE FALLEN ANGEL
TTITLE12=AERODYNAMIC (ALPHAZONE REMIX) - CLOUDCHASER
TTITLE13=SUNRISE (ORIGINAL CLUB MIX) - ALPHAZONE
TTITLE14=SHUFFLE ROYAL (ALPHAZONE REMIX) - ESCADE
TTITLE15=STORM (ALPHAZONE REMIX) - ATMOSPHERE
TTITLE16=JETLAG (ALPHAZONE RMX) - DJ KIM
EXTD=YEAR: 2005
EXTT0=
EXTT1=
EXTT2=
EXTT3=
EXTT4=
EXTT5=
EXTT6=
EXTT7=
EXTT8=
EXTT9=
EXTT10=
EXTT11=
EXTT12=
EXTT13=
EXTT14=
EXTT15=
EXTT16=
PLAYORDER=
